<?xml version="1.0" encoding="utf-8"?>
<!DOCTYPE svg PUBLIC "-//W3C//DTD SVG 1.1//EN" "http://www.w3.org/Graphics/SVG/1.1/DTD/svg11.dtd">
<svg version="1.1" xmlns="http://www.w3.org/2000/svg" xmlns:xlink="http://www.w3.org/1999/xlink" width="300px" height="176px" viewBox="0 0 300 176">
<path d="M3.8,68.6c-4.8-5.1-5.6-9.3,1-12.1c8.8-3.7,12-5,28.5-8.1c47.9-8.8,107.8-10.1,156.4-8.8L212,0c0.6,0.3,4.5,4.6,5.1,4.9
	l-20.7,34.5c21.7,2,31.5,1.5,79.1,6.5c0,0-0.3-2.1-81.6-2.7c0,0-50.9,83.6-52.3,82.5c-1.4-1,28-47.6,46.1-82.2
	c-11.8,0-22.5-0.3-33.3,0c-36.2,0.9-72.7,1.8-108.1,9.4C23.9,57.6,19,61.7,19.2,65.4c0.3,3.6,8.2,7,44.4,15.6
	c32.1,6.7,92.2,11.8,92.2,11.8S63.8,90.6,23.2,76.9c0,0,27.4,37.3,39.9,53.7L3.8,68.6z"/>
<path d="M110.4,169.7c-10.2,8.7-28.8,6-35.4-2.4c-8.7-10.9-3.2-28.3,9.1-38.3c17.7-12.1,30.6-1.7,30.6-1.7l-3.5,3.7
	c0,0-14.1-12.4-30.5,5.6c-5.1,5.7-10,19.4-4.5,27.3C84.4,175.3,99.2,175,110.4,169.7z"/>
<path d="M191.1,155.7l13.4,17.8l-1,1.5l-13.9-16.4c0,0-2.7,9.7-3.2,14.4c-0.6-0.2-2,2.5-2,2.5l10.1-52l3.3,0.8l-7.3,29.9l14.7-12.2
	l0.8,3.1L191.1,155.7z"/>
<path d="M182,151.3l-2.4,1.3c0,0-3.9-12.4-15.9-5c-6.8,4.2-10.9,13-7.9,19.6c2.9,6.3,12.9,9.5,23,0.5c-1.7,5-10.6,7.8-14.2,7.6
	c-6.6-0.3-14.3-6-11.9-15.8c1.7-6.8,7.4-15.2,15.2-16.7C181,140.4,182,151.3,182,151.3z"/>
<path d="M226.3,123.5l-5.1,19.6l11.8-0.2l-1.4,2.8l-10.8-0.5c0,0-4.8,17.9-4,23.7c0.4,3.1,3.6,6,11.9,5c-9.5,3.3-14.5-0.4-14.4-5.4
	c0.3-8.6,3.7-23.3,3.7-23.3l-4.2-0.4l-1.1-1.5h5.7l4.5-19.1L226.3,123.5z"/>
<path d="M279.9,143.2c0,0-6.1,20.9-7.1,30.6c-0.5,0-0.7,1.1-1,1.1c1-9.7,5.6-32.3,5.6-32.3L279.9,143.2z"/>
<path d="M145.7,151l-2.5,2.4c0,0-1.4-14.2-15.8-6.1c-7,3.9-10.9,13.1-7.9,19.6c2.5,5.3,20.2,11.6,26.8-14.7
	c-0.6,8.6-2.8,12-5.7,16.1c-3.4,4.9-8.8,6.4-11.6,6.8c-7.4,1-15.7-6-13.3-15.8c1.7-6.8,6.6-14,15.5-16.4
	C144.2,139.4,145.7,151,145.7,151z"/>
<path d="M261,164.7c-0.7,3-2.1,10.2-2.1,10.2s1.2-2.7,1.7-2.5l6.4-29.3l-2.5-0.6l-1.5,8c-0.5-2.1-3-9.8-14.3-7.7
	c-7.8,1.5-13.3,9.6-14.9,16.4c-2.4,9.8,5.3,15.5,11.9,15.8c3.7,0.2,12.6-2.7,14.2-7.6c-10.1,9-20.1,5.8-23-0.5
	c-3-6.5,1.4-14.9,7.9-19.6C255,140.1,264.5,150.8,261,164.7z"/>
<path d="M284.6,129.8c-0.3,1-2.1,2.8-3.1,2.7c-0.8-0.1-1.5-1.9-1.4-2.7c0.2-1.1,2.1-3.4,3.1-3.3
	C284.2,126.7,284.9,128.9,284.6,129.8z"/>
<path d="M292.1,145c0,0-4.7,17.9-4,23.7c0.4,3.1,3.6,6,11.9,5c-9.5,3.3-14.5-0.5-14.4-5.4c0.3-8.6,3.7-23.3,3.7-23.3l4.9-21.6
	l3.3,0.8L292.1,145z"/>
</svg>
